<?xml version="1.0" standalone="no"?>
<!DOCTYPE svg PUBLIC "-//W3C//DTD SVG 20010904//EN"
 "http://www.w3.org/TR/2001/REC-SVG-20010904/DTD/svg10.dtd">
<svg version="1.0" xmlns="http://www.w3.org/2000/svg"
 width="1080.000000pt" height="1080.000000pt" viewBox="0 0 1080.000000 1080.000000"
 preserveAspectRatio="xMidYMid meet">
<metadata>
Created by potrace 1.14, written by Peter Selinger 2001-2017
</metadata>
<g transform="translate(0.000000,1080.000000) scale(0.100000,-0.100000)"
fill="#000000" stroke="none">
<path d="M330 10793 c-14 -3 -29 -8 -35 -12 -5 -4 -36 -16 -67 -26 -31 -10
-55 -22 -52 -27 3 -4 -1 -8 -8 -8 -19 0 -101 -80 -117 -115 -7 -16 -21 -45
-30 -64 -15 -32 -16 -285 -16 -3225 0 -1755 2 -3198 5 -3206 3 -8 8 -17 12
-20 4 -3 9 -15 11 -25 9 -47 72 -153 94 -158 4 -1 7 -5 6 -9 -1 -3 14 -14 35
-24 20 -9 43 -23 50 -31 7 -7 19 -13 25 -14 7 0 19 -2 27 -4 8 -2 25 -5 37 -7
57 -10 19 -14 -135 -13 l-167 0 0 -1377 0 -1378 5378 0 c3688 0 5384 3 5398
10 19 11 19 36 19 1364 0 1071 -3 1356 -12 1364 -7 5 -24 12 -38 15 -18 3 -15
5 13 6 l37 1 0 3495 0 3495 -5222 -1 c-2873 -1 -5234 -4 -5248 -6z"/>
</g>
</svg>
